HIERARCHY
ROOT Hips
{
	OFFSET 0.000000 0.000000 0.000000
	CHANNELS 6 Xposition Yposition Zposition Zrotation Yrotation Xrotation 
	JOINT LHipJoint
	{
		OFFSET 0.000000 0.000000 0.000000
		CHANNELS 3 Zrotation Yrotation Xrotation
		JOINT LeftUpLeg
		{
			OFFSET 1.363060 -1.794630 0.839290
			CHANNELS 3 Zrotation Yrotation Xrotation
			JOINT LeftLeg
			{
				OFFSET 2.448110 -6.726130 0.000000
				CHANNELS 3 Zrotation Yrotation Xrotation
				JOINT LeftFoot
				{
					OFFSET 2.562200 -7.039590 0.000000
					CHANNELS 3 Zrotation Yrotation Xrotation
					JOINT LeftToeBase
					{
						OFFSET 0.157640 -0.433110 2.322550
						CHANNELS 3 Zrotation Yrotation Xrotation
						End Site
						{
							OFFSET 0.000000 0.000000 0.000000
						}
					}
				}
			}
		}
	}
	JOINT RHipJoint
	{
		OFFSET 0.000000 0.000000 0.000000
		CHANNELS 3 Zrotation Yrotation Xrotation
		JOINT RightUpLeg
		{
			OFFSET -1.305520 -1.794630 0.839290
			CHANNELS 3 Zrotation Yrotation Xrotation
			JOINT RightLeg
			{
				OFFSET -2.542530 -6.985550 0.000000
				CHANNELS 3 Zrotation Yrotation Xrotation
				JOINT RightFoot
				{
					OFFSET -2.568260 -7.056230 0.000000
					CHANNELS 3 Zrotation Yrotation Xrotation
					JOINT RightToeBase
					{
						OFFSET -0.164730 -0.452590 2.363150
						CHANNELS 3 Zrotation Yrotation Xrotation
						End Site
						{
							OFFSET 0.000000 0.000000 0.000000
						}
					}
				}
			}
		}
	}
	JOINT LowerBack
	{
		OFFSET 0.000000 0.000000 0.000000
		CHANNELS 3 Zrotation Yrotation Xrotation
		JOINT Spine
		{
			OFFSET 0.028270 2.035590 -0.193380
			CHANNELS 3 Zrotation Yrotation Xrotation
			JOINT Spine1
			{
				OFFSET 0.056720 2.048850 -0.042750
				CHANNELS 3 Zrotation Yrotation Xrotation
				JOINT Neck
				{
					OFFSET 0.000000 0.000000 0.000000
					CHANNELS 3 Zrotation Yrotation Xrotation
					JOINT Neck1
					{
						OFFSET -0.054170 1.746240 0.172020
						CHANNELS 3 Zrotation Yrotation Xrotation
						JOINT Head
						{
							OFFSET 0.104070 1.761360 -0.123970
							CHANNELS 3 Zrotation Yrotation Xrotation
							End Site
							{
								OFFSET 0.000000 0.000000 0.000000
							}
						}
					}
				}
				JOINT LeftShoulder
				{
					OFFSET 0.000000 0.000000 0.000000
					CHANNELS 3 Zrotation Yrotation Xrotation
					JOINT LeftArm
					{
						OFFSET 3.362410 1.200890 -0.311210
						CHANNELS 3 Zrotation Yrotation Xrotation
						JOINT LeftForeArm
						{
							OFFSET 4.983000 -0.000000 -0.000000
							CHANNELS 3 Zrotation Yrotation Xrotation
							JOINT LeftHand
							{
								OFFSET 3.483560 -0.000000 -0.000000
								CHANNELS 3 Zrotation Yrotation Xrotation
								JOINT LeftFingerBase
								{
									OFFSET 0.000000 0.000000 0.000000
									CHANNELS 3 Zrotation Yrotation Xrotation
									JOINT LeftHandIndex1
									{
										OFFSET 0.715260 -0.000000 -0.000000
										CHANNELS 3 Zrotation Yrotation Xrotation
										End Site
										{
											OFFSET 0.000000 0.000000 0.000000
										}
									}
								}
								JOINT LThumb
								{
									OFFSET 0.000000 0.000000 0.000000
									CHANNELS 3 Zrotation Yrotation Xrotation
									End Site
									{
										OFFSET 0.000000 0.000000 0.000000
									}
								}
							}
						}
					}
				}
				JOINT RightShoulder
				{
					OFFSET 0.000000 0.000000 0.000000
					CHANNELS 3 Zrotation Yrotation Xrotation
					JOINT RightArm
					{
						OFFSET -3.136600 1.374050 -0.404650
						CHANNELS 3 Zrotation Yrotation Xrotation
						JOINT RightForeArm
						{
							OFFSET -5.241900 -0.000000 -0.000000
							CHANNELS 3 Zrotation Yrotation Xrotation
							JOINT RightHand
							{
								OFFSET -3.444170 -0.000000 -0.000000
								CHANNELS 3 Zrotation Yrotation Xrotation
								JOINT RightFingerBase
								{
									OFFSET 0.000000 0.000000 0.000000
									CHANNELS 3 Zrotation Yrotation Xrotation
									JOINT RightHandIndex1
									{
										OFFSET -0.622530 -0.000000 -0.000000
										CHANNELS 3 Zrotation Yrotation Xrotation
										End Site
										{
											OFFSET 0.000000 0.000000 0.000000
										}
									}
								}
								JOINT RThumb
								{
									OFFSET 0.000000 0.000000 0.000000
									CHANNELS 3 Zrotation Yrotation Xrotation
									End Site
									{
										OFFSET 0.000000 0.000000 0.000000
									}
								}
							}
						}
					}
				}
			}
		}
	}
}
MOTION
Frames: 6
Frame Time: 0.008333
5.406308 17.407753 0.517958 3.010492 -70.232253 7.696547 -10.570865 1.462378 2.594674 -6.187278 5.149536 -15.239670 -2.728606 -1.390845 -2.552993 -0.395571 -1.755007 7.093326 0.023400 -0.000000 -30.928401 9.771804 -2.469301 1.237086 7.757123 -9.369663 -8.488219 1.850152 1.570616 -3.494272 -2.002285 -14.390099 -2.922249 -3.001800 -0.000000 -22.873000 -3.490951 2.173216 -4.259608 -1.178795 2.439849 -5.111957 -2.787700 2.479533 -6.233344 1.151032 11.785423 4.275796 -0.901578 -0.266075 3.308702 0.000000 0.000000 0.000000 1.533105 -1.170588 -8.892611 -94.913339 -76.872812 23.830567 172.820478 -52.518827 179.443708 33.707685 -19.141298 -6.360096 -0.445080 1.340100 -0.000000 0.000000 0.000000 0.000000 0.000000 0.000000 0.000000 -4.427155 15.634502 3.079672 66.227739 46.551716 -1.297665 0.016764 14.051797 -0.008160 -1.508101 -4.108028 0.052848 0.040784 -0.195590 -0.000000 0.000000 0.000000 0.000000 0.000000 0.000000 0.000000 
5.404666 17.399347 0.526249 2.785992 -69.761457 7.638905 -10.556672 1.498783 2.655159 -6.059832 4.779773 -14.933313 -2.699998 -1.365796 -2.522303 -0.398344 -1.879893 6.959569 -0.007400 -0.000000 -31.149200 9.780525 -2.445165 1.132609 7.764852 -9.611937 -8.007816 1.816350 1.579252 -3.556591 -2.098265 -14.799554 -3.031448 -3.010100 0.000001 -22.926700 -3.380631 2.014836 -4.224115 -1.287793 2.250669 -5.103813 -3.404318 2.278628 -6.219142 2.395294 11.123928 4.506333 -1.284797 -0.289054 3.357752 0.000000 0.000000 0.000000 2.130823 -1.308463 -8.530393 -92.633679 -77.124283 22.024128 172.963526 -52.218894 179.440081 34.028032 -19.221867 -6.456380 -0.467620 1.352235 -0.000000 0.000000 0.000000 0.000000 0.000000 0.000000 0.000000 -1.667132 14.843366 2.749208 66.586556 44.080877 2.184529 -0.150044 19.606010 -0.008510 -1.869320 -2.988023 0.045441 0.019685 -0.232207 0.000000 0.000000 0.000000 0.000000 0.000000 0.000000 0.000000 
5.402651 17.391400 0.535919 2.589536 -69.419793 7.591101 -10.546967 1.535982 2.709462 -5.950773 4.476582 -14.674834 -2.673748 -1.342555 -2.473937 -0.397555 -1.969704 6.802852 -0.029500 -0.000000 -31.352300 9.784978 -2.423169 1.050668 7.766124 -9.802438 -7.565355 1.789078 1.595259 -3.675902 -2.196939 -15.131944 -3.078596 -3.002100 0.000000 -23.013000 -3.245361 1.854057 -4.211932 -1.375220 2.060319 -5.088673 -3.951041 2.080524 -6.172948 3.469922 10.384588 4.662770 -1.637700 -0.309046 3.388030 0.000000 0.000000 0.000000 2.658014 -1.335979 -8.166808 -90.185602 -77.413292 20.027855 173.095688 -51.905508 179.436888 34.386651 -19.219743 -6.533367 -0.491523 1.361061 -0.000000 0.000000 0.000000 0.000000 0.000000 0.000000 0.000000 0.788819 13.921025 2.386731 66.844206 41.997430 5.023022 -0.343544 25.158143 -0.009678 -2.191715 -2.091408 0.035031 -0.002963 -0.262910 -0.000000 0.000000 0.000000 0.000000 0.000000 0.000000 0.000000 
5.399620 17.384288 0.546715 2.431560 -69.209765 7.548642 -10.541618 1.573740 2.757109 -5.866747 4.251454 -14.470219 -2.651557 -1.322170 -2.410156 -0.394162 -2.029815 6.630569 -0.044100 -0.000001 -31.528600 9.786067 -2.404425 0.995721 7.757301 -9.935161 -7.173983 1.768118 1.617656 -3.843401 -2.295085 -15.383150 -3.069430 -2.980100 -0.000000 -23.123801 -3.089646 1.698321 -4.228526 -1.439168 1.876878 -5.067298 -4.413867 1.893390 -6.093741 4.333053 9.572114 4.741005 -1.942044 -0.325297 3.399409 0.000000 0.000000 0.000000 3.099208 -1.252113 -7.821954 -87.688603 -77.707073 17.939023 173.210759 -51.587102 179.434248 34.752141 -19.136452 -6.584054 -0.515446 1.366497 -0.000000 0.000000 0.000000 0.000000 0.000000 0.000000 0.000000 2.802604 12.900807 1.993303 67.251691 40.273972 7.265054 -0.533637 30.574136 -0.010906 -2.394794 -1.489513 0.025105 -0.026283 -0.287225 -0.000000 0.000000 0.000000 0.000000 0.000000 0.000000 0.000000 
5.394987 17.378346 0.558325 2.321722 -69.126755 7.505586 -10.539653 1.612500 2.798966 -5.812034 4.109137 -14.321277 -2.634744 -1.305466 -2.335221 -0.389088 -2.065557 6.452325 -0.052600 -0.000000 -31.671700 9.785398 -2.389904 0.970872 7.735334 -10.007177 -6.843046 1.752692 1.645038 -4.045756 -2.388782 -15.555205 -3.013847 -2.947400 0.000000 -23.249100 -2.925240 1.552485 -4.278182 -1.482582 1.705823 -5.041222 -4.793728 1.722253 -5.982393 4.983088 8.653446 4.744947 -2.193452 -0.337857 3.393526 0.000000 0.000000 0.000000 3.466535 -1.069876 -7.520065 -85.299415 -77.971789 15.896960 173.307094 -51.274895 179.432210 35.089326 -18.989223 -6.606434 -0.538103 1.369208 -0.000000 0.000000 0.000000 0.000000 0.000000 0.000000 0.000000 4.340802 11.772508 1.572810 67.928792 38.889132 9.171403 -0.699861 35.760318 -0.012219 -2.554669 -1.131385 0.018255 -0.047885 -0.306801 -0.000000 0.000000 0.000000 0.000000 0.000000 0.000000 0.000000 
5.388441 17.373778 0.570492 2.262746 -69.161973 7.457771 -10.540000 1.653146 2.836615 -5.788806 4.048506 -14.225938 -2.623951 -1.292853 -2.254584 -0.383034 -2.081775 6.275845 -0.056300 0.000000 -31.775300 9.784223 -2.379754 0.977173 7.698637 -10.018302 -6.578907 1.741906 1.676024 -4.267483 -2.474089 -15.655021 -2.924089 -2.908100 -0.000000 -23.380200 -2.760107 1.417240 -4.363572 -1.506206 1.548274 -5.017042 -5.088840 1.567425 -5.860938 5.434515 7.715428 4.706871 -2.381607 -0.346768 3.379457 0.000000 0.000000 0.000000 3.762096 -0.808479 -7.266414 -83.132460 -78.174312 14.004537 173.385316 -50.980772 179.430774 35.368801 -18.800065 -6.601509 -0.558199 1.369918 -0.000000 0.000000 0.000000 0.000000 0.000000 0.000000 0.000000 5.371287 10.645182 1.124421 68.918404 37.645895 10.712659 -0.841758 40.847790 -0.013614 -2.726268 -1.019788 0.016480 -0.067390 -0.323207 -0.000000 0.000000 0.000000 0.000000 0.000000 0.000000 0.000000 
